<svg xmlns="http://www.w3.org/2000/svg" width="52" height="47" viewBox="0 0 52 47">
    <g fill="#32E783" fill-rule="nonzero" stroke="#FFF">
        <path d="M47.895 16.927a4.087 4.087 0 0 0-4.072-4.072 4.087 4.087 0 0 0-4.073 4.072c0 .746.222 1.452.585 2.057l-5.484 5.484c-.565-.283-1.19-.464-1.855-.464-.847 0-1.613.262-2.278.686l-5.504-5.484a4.012 4.012 0 0 0 .705-2.279 4.087 4.087 0 0 0-4.072-4.072 4.087 4.087 0 0 0-4.073 4.072c0 .666.182 1.29.464 1.835L12.41 24.59a4.002 4.002 0 0 0-2.056-.585 4.087 4.087 0 0 0-4.073 4.073 4.087 4.087 0 0 0 4.073 4.072 4.087 4.087 0 0 0 4.072-4.072c0-.746-.221-1.452-.584-2.057l5.726-5.726a4.012 4.012 0 0 0 2.278.706c.665 0 1.29-.181 1.834-.464l5.686 5.686c-.282.564-.464 1.19-.464 1.855a4.087 4.087 0 0 0 4.073 4.072 4.087 4.087 0 0 0 4.072-4.072c0-.847-.262-1.633-.685-2.279l5.383-5.383c.605.363 1.31.585 2.056.585 2.258 0 4.093-1.835 4.093-4.073zm-37.54 13.186a2.065 2.065 0 0 1-2.057-2.057c0-1.129.928-2.056 2.057-2.056.564 0 1.068.222 1.451.605a2.052 2.052 0 0 1-1.452 3.508zm11.492-11.15a2.065 2.065 0 0 1-2.057-2.056c0-1.129.928-2.056 2.057-2.056s2.056.927 2.056 2.056c0 1.15-.927 2.057-2.056 2.057zm11.149 11.15a2.065 2.065 0 0 1-2.056-2.057c0-1.129.927-2.056 2.056-2.056s2.056.927 2.056 2.056c-.02 1.15-.927 2.057-2.056 2.057zm9.375-11.754a2.075 2.075 0 0 1-.605-1.452c0-1.129.928-2.056 2.057-2.056s2.056.927 2.056 2.056a2.065 2.065 0 0 1-2.056 2.057 1.992 1.992 0 0 1-1.452-.605zM2.109 40.657c.605 0 1.089-.484 1.089-1.088V2.229c0-.604-.484-1.088-1.09-1.088-.604 0-1.088.484-1.088 1.089v37.339c0 .604.484 1.088 1.089 1.088zM7.794 43.843H2.11c-.605 0-1.089.484-1.089 1.088 0 .605.484 1.09 1.089 1.09h5.706c.604 0 1.088-.485 1.088-1.09 0-.604-.504-1.088-1.109-1.088zM18.319 43.843h-5.686c-.605 0-1.089.484-1.089 1.088 0 .605.484 1.09 1.09 1.09h5.705c.605 0 1.088-.485 1.088-1.09 0-.604-.504-1.088-1.108-1.088zM28.843 43.843h-5.706c-.605 0-1.089.484-1.089 1.088 0 .605.484 1.09 1.09 1.09h5.705c.605 0 1.088-.485 1.088-1.09 0-.604-.483-1.088-1.088-1.088zM39.367 43.843H33.66c-.605 0-1.088.484-1.088 1.088 0 .605.483 1.09 1.088 1.09h5.706c.605 0 1.089-.485 1.089-1.09 0-.604-.484-1.088-1.09-1.088zM49.891 43.843h-5.706c-.604 0-1.088.484-1.088 1.088 0 .605.484 1.09 1.088 1.09h5.706c.605 0 1.089-.485 1.089-1.09 0-.604-.484-1.088-1.089-1.088z"/>
    </g>
</svg>
