<svg xmlns="http://www.w3.org/2000/svg" width="52" height="46" viewBox="0 0 52 46">
    <g fill="#32E783" fill-rule="nonzero" stroke="#FFF">
        <path d="M16.161 32.673l-2.64-.403-.686-7.258c-.202-3.226-2.964-5.685-6.19-5.484a5.856 5.856 0 0 0-5.484 6.23l.726 7.6a5.829 5.829 0 0 0 3.75 5.102c.565.282 1.19.403 1.835.383l5.544.262a.996.996 0 0 0 1.049-.948c.02-.544-.404-1.028-.948-1.048l-5.605-.262h-.1a1.75 1.75 0 0 1-.908-.182.287.287 0 0 0-.12-.04 3.876 3.876 0 0 1-2.521-3.407l-.706-7.621a3.866 3.866 0 0 1 3.61-4.073c2.136-.12 3.93 1.492 4.072 3.63l.726 7.6v.343a.984.984 0 0 0 .846 1.008l3.448.544c.423.06.726.424.726.847v8.407c0 .545.443 1.008 1.008 1.008.544 0 1.008-.443 1.008-1.008v-8.407c-.04-1.411-1.049-2.6-2.44-2.823zM7.35 17.23c2.884 0 5.243-2.359 5.243-5.242s-2.36-5.242-5.242-5.242c-2.883 0-5.242 2.359-5.242 5.242S4.468 17.23 7.35 17.23zm0-8.488a3.244 3.244 0 0 1 3.247 3.246 3.244 3.244 0 0 1-3.246 3.246 3.244 3.244 0 0 1-3.246-3.246A3.257 3.257 0 0 1 7.35 8.742zM45.355 19.528c-3.206-.201-5.988 2.258-6.19 5.444l-.685 7.298-2.641.403a2.86 2.86 0 0 0-2.42 2.823v8.407c0 .545.444 1.008 1.008 1.008a.998.998 0 0 0 1.008-1.008v-8.407c0-.423.303-.766.726-.847l3.448-.544a.984.984 0 0 0 .847-1.008v-.303l.725-7.66c.121-2.118 1.936-3.73 4.073-3.61 2.117.121 3.73 1.956 3.609 4.032l-.726 7.662a3.848 3.848 0 0 1-2.5 3.367c-.04.02-.08.04-.12.04a1.75 1.75 0 0 1-.908.181h-.1l-5.606.263a.995.995 0 0 0-.947 1.048.983.983 0 0 0 1.048.948l5.544-.263c.625.02 1.27-.1 1.835-.383 2.137-.826 3.609-2.822 3.75-5.08l.726-7.662c.181-3.185-2.278-5.967-5.504-6.149zM44.65 17.23c2.882 0 5.241-2.359 5.241-5.242s-2.359-5.242-5.242-5.242-5.242 2.359-5.242 5.242a5.244 5.244 0 0 0 5.242 5.242zm0-8.488a3.244 3.244 0 0 1 3.245 3.246 3.244 3.244 0 0 1-3.246 3.246 3.244 3.244 0 0 1-3.246-3.246 3.244 3.244 0 0 1 3.246-3.246zM36.343 14.75V2.109c0-.585-.484-1.069-1.069-1.069H16.726c-.585 0-1.069.484-1.069 1.069V14.75c0 .585.484 1.069 1.069 1.069h5.181l3.387 3.387a.978.978 0 0 0 .706.302c.262 0 .504-.1.706-.302l3.387-3.387h5.181c.605 0 1.069-.484 1.069-1.069zm-1.996-.927h-4.678c-.262 0-.524.1-.705.302L26 17.089l-2.964-2.984a1.027 1.027 0 0 0-.705-.303h-4.678V3.056h16.694v10.767z"/>
    </g>
</svg>
