<svg xmlns="http://www.w3.org/2000/svg" width="52" height="52" viewBox="0 0 52 52">
    <g fill="#32E783" fill-rule="nonzero" stroke="#FFF">
        <path d="M49.811 27.332a1.025 1.025 0 0 0-1.106.902 22.833 22.833 0 0 1-22.787 20.573c-12.623 0-22.91-10.266-22.91-22.91A22.833 22.833 0 0 1 23.582 3.112a1.01 1.01 0 0 0-.205-2.009A24.872 24.872 0 0 0 1 25.918c0 13.73 11.189 24.918 24.918 24.918 12.848 0 23.504-9.631 24.795-22.377a1.018 1.018 0 0 0-.902-1.127z"/>
        <path d="M50.713 23.377C49.525 11.656 40.18 2.311 28.46 1.123L27.352 1v23.484h23.484l-.123-1.107zm-21.352-.902v-19.2c9.877 1.495 17.705 9.323 19.2 19.2h-19.2zM21.348 9.566c.39-.39.41-1.025.02-1.435a1.027 1.027 0 0 0-1.434-.02L8.254 19.566c-.39.389-.41 1.024-.02 1.434.205.205.45.307.717.307.246 0 .512-.102.697-.287l11.7-11.454zM10.037 35.057c.246 0 .512-.102.697-.287l12.274-12.028c.39-.39.41-1.025.02-1.435a1.027 1.027 0 0 0-1.434-.02L9.32 33.316c-.39.389-.41 1.024-.02 1.434.204.205.47.307.737.307zM17.434 42.619c.246 0 .513-.103.697-.287l12.357-12.09c.389-.39.41-1.025.02-1.435a1.027 1.027 0 0 0-1.434-.02l-12.357 12.09c-.39.39-.41 1.025-.02 1.434.225.205.471.308.737.308zM31.164 44.012c.246 0 .512-.102.697-.287L43.582 32.25c.39-.39.41-1.025.02-1.434a1.027 1.027 0 0 0-1.434-.02L30.447 42.27c-.39.39-.41 1.025-.02 1.435.225.205.47.307.737.307z"/>
    </g>
</svg>
