<svg xmlns="http://www.w3.org/2000/svg" width="56" height="48" viewBox="0 0 56 48">
    <g fill="#32E783" fill-rule="nonzero" stroke="#FFF">
        <path d="M43.046 9.96a1.044 1.044 0 0 0-1.07-.022l-8.82 4.802a1.04 1.04 0 0 0-.545.917c0 .371.175.742.502.939l3.318 2.03c-3.624 4.781-9.824 5.829-15.827 6.833-1.332.219-2.707.459-3.995.72-7.226 1.485-12.138 4.476-15.413 9.41a1.037 1.037 0 0 0 .306 1.462.98.98 0 0 0 .59.175 1.1 1.1 0 0 0 .895-.48c2.947-4.432 7.422-7.139 14.08-8.514a90.016 90.016 0 0 1 3.908-.699c6.156-1.026 13.142-2.205 17.268-7.772 0 0 0-.021.022-.021l3.428 2.095a1.037 1.037 0 0 0 1.047.022 1.04 1.04 0 0 0 .546-.917l.24-10.042a.961.961 0 0 0-.48-.939zm-1.812 9.081l-5.436-3.318 5.589-3.057-.153 6.375zM12.57 14.173a.917.917 0 0 0 .568-.175l2.161-1.375 1.375 2.161c.197.327.546.502.896.502a.917.917 0 0 0 .567-.175c.502-.305.633-.96.328-1.462l-1.376-2.161 2.162-1.376c.502-.305.633-.96.327-1.462-.306-.503-.96-.634-1.463-.328l-2.16 1.375-1.376-2.16c-.306-.503-.96-.634-1.463-.328-.502.305-.633.96-.327 1.462l1.375 2.162-2.161 1.375c-.502.306-.633.96-.328 1.463.197.349.546.502.895.502zM23.29 37.03a4.826 4.826 0 0 0-5.742 3.645 4.725 4.725 0 0 0 .633 3.624 4.764 4.764 0 0 0 3.012 2.118c.35.087.7.109 1.048.109a4.823 4.823 0 0 0 4.694-3.755 4.725 4.725 0 0 0-.633-3.624 4.82 4.82 0 0 0-3.013-2.117zm1.55 5.283a2.682 2.682 0 0 1-3.21 2.03 2.654 2.654 0 0 1-1.68-1.179 2.626 2.626 0 0 1-.35-2.008 2.7 2.7 0 0 1 2.62-2.096c.196 0 .392.022.589.065a2.654 2.654 0 0 1 1.68 1.18c.394.589.503 1.309.35 2.008zM54.802 1.524c-.27-.41-.746-.487-1.08-.156L47.82 7.11l-2.126-3.25c-.27-.41-.745-.468-1.079-.137-.333.331-.38.915-.11 1.324l2.601 3.99c.16.233.381.35.603.35a.613.613 0 0 0 .476-.214l6.506-6.326c.317-.33.38-.915.11-1.323z"/>
    </g>
</svg>
