<svg xmlns="http://www.w3.org/2000/svg" width="56" height="65" viewBox="0 0 56 65">
    <g fill="#32E783" fill-rule="evenodd">
        <path d="M18.265 24.453h.919l.027.028-.021 18.395 8.732.009.014.027-.002.92-.015.027-7.278-.01c-.557 0-1.36.006-2.411.013l-.015-.03.023-19.354.027-.025zM28.345 21.763l-.01 8.278 5.29.005c.075 0 .17-.003.289-.013l.026.013c.532 0 1.025-.204 1.483-.615.459-.456.687-.957.687-1.505l.006-4.045c0-.63-.284-1.182-.85-1.659-.419-.303-.83-.452-1.233-.452l-5.688-.007zm-.959-.99l6.595.01c1.013 0 1.872.467 2.575 1.4.365.576.546 1.17.546 1.782l-.005 3.934c-.002.978-.441 1.818-1.318 2.52-.623.403-1.24.601-1.852.601l-.164-.014-2.646-.002 5.953 9.244v.029l-1.138-.003c-.046-.036-.552-.826-1.52-2.37-.162-.23-1.637-2.53-4.417-6.901l-1.66-.005-.011 3.575-.026.026h-.932l-.029-.03.023-13.767.026-.029z"/>
        <path d="M.567 16.677H0v31.609l27.657 15.969 27.659-15.97V16.35L27.657.381 0 16.35v.328h.567l.284.491L27.657 1.691l26.525 15.314v30.627L27.657 62.945 1.134 47.632V16.677H.567l.284.491z"/>
    </g>
</svg>
